<?xml version="1.0" encoding="UTF-8" standalone="yes"?>
<!DOCTYPE svg PUBLIC "-//W3C//DTD SVG 1.1//EN" "http://www.w3.org/Graphics/SVG/1.1/DTD/svg11.dtd">

<svg width="280" height="80" viewBox="0 0 280 80" xmlns="http://www.w3.org/2000/svg" xmlns:xlink="http://www.w3.org/1999/xlink" version="1.1" baseProfile="full">
    <defs>
        <radialGradient id="-1026836880" cx="50%" cy="50%" r="50%" fx="50%" fy="50%">
            <stop offset="0%" style="stop-color:#8d8d8d;stop-opacity:1.000000"></stop>
            <stop offset="100%" style="stop-color:#494949;stop-opacity:1.000000"></stop>
        </radialGradient>
    </defs>
    <g transform="scale(1,-1) translate(0,-80)">
        <path d="M 2.800007 24.869444 L 8.691118 24.869444 Q 10.231118 24.869444 11.386118 24.539444 Q 12.541118 24.209444 13.311118 23.616667 Q 14.081118 23.023889 14.472229 22.211111 Q 14.863340 21.398333 14.863340 20.432778 Q 14.863340 19.638333 14.563896 18.947778 Q 14.264451 18.257222 13.714451 17.701111 Q 13.164452 17.145000 12.394452 16.735556 Q 11.624452 16.326111 10.695563 16.106111 L 16.892229 7.843889 L 13.580007 7.843889 L 7.664452 15.849444 L 5.660007 15.849444 L 5.660007 7.843889 L 2.800007 7.843889 Z M 5.660007 16.705000 L 7.310007 16.705000 Q 8.275563 16.705000 9.088340 16.961667 Q 9.901118 17.218333 10.500007 17.688889 Q 11.098896 18.159444 11.435007 18.831667 Q 11.771118 19.503889 11.771118 20.335000 Q 11.771118 21.092778 11.502229 21.734444 Q 11.233340 22.376111 10.756674 22.834444 Q 10.280007 23.292778 9.620007 23.549444 Q 8.960007 23.806111 8.177785 23.806111 L 5.660007 23.806111 Z M 24.237785 7.562778 Q 22.905562 7.562778 21.738340 8.063889 Q 20.571118 8.565000 19.697229 9.426667 Q 18.823340 10.288333 18.316118 11.443333 Q 17.808896 12.598333 17.808896 13.918333 Q 17.808896 15.495000 18.273340 16.839444 Q 18.737785 18.183889 19.581118 19.161667 Q 20.424451 20.139444 21.616118 20.689444 Q 22.807785 21.239444 24.262229 21.239444 Q 25.557785 21.239444 26.633340 20.787222 Q 27.708896 20.335000 28.478896 19.571111 Q 29.248896 18.807222 29.676673 17.805000 Q 30.104451 16.802778 30.104451 15.702778 L 20.314451 15.702778 Q 20.314451 14.382778 20.656674 13.252222 Q 20.998896 12.121667 21.610007 11.302778 Q 22.221118 10.483889 23.076674 10.019444 Q 23.932229 9.555000 24.946674 9.555000 Q 25.802229 9.555000 26.584451 9.830000 Q 27.366673 10.105000 28.002229 10.551111 Q 28.637785 10.997222 29.083896 11.577778 Q 29.530007 12.158333 29.713340 12.769444 L 30.458896 12.439444 Q 30.177785 11.425000 29.548340 10.538889 Q 28.918896 9.652778 28.081673 8.992778 Q 27.244451 8.332778 26.248340 7.947778 Q 25.252229 7.562778 24.237785 7.562778 Z M 26.841118 16.753889 Q 26.841118 17.499444 26.578340 18.141111 Q 26.315562 18.782778 25.857229 19.253333 Q 25.398896 19.723889 24.781674 19.992778 Q 24.164451 20.261667 23.455562 20.261667 Q 22.868896 20.261667 22.325007 19.992778 Q 21.781118 19.723889 21.359451 19.259444 Q 20.937785 18.795000 20.662785 18.153333 Q 20.387785 17.511667 20.326674 16.766111 Z M 37.095562 8.467222 Q 37.633340 8.467222 38.085562 8.632222 Q 38.537784 8.797222 38.861673 9.066111 Q 39.185562 9.335000 39.368895 9.689444 Q 39.552229 10.043889 39.552229 10.410556 Q 39.552229 11.009444 39.252784 11.455556 Q 38.953340 11.901667 38.458340 12.262222 Q 37.963340 12.622778 37.327784 12.916111 Q 36.692229 13.209444 36.038340 13.521111 Q 35.384451 13.832778 34.748896 14.193333 Q 34.113340 14.553889 33.618340 15.024444 Q 33.123340 15.495000 32.823896 16.112222 Q 32.524451 16.729444 32.524451 17.572778 Q 32.524451 18.367222 32.860562 19.039444 Q 33.196673 19.711667 33.789451 20.200556 Q 34.382229 20.689444 35.207229 20.964444 Q 36.032229 21.239444 37.010007 21.239444 Q 37.657784 21.239444 38.232229 21.147778 Q 38.806673 21.056111 39.350562 20.793333 Q 39.894451 20.530556 40.438340 20.053889 Q 40.982229 19.577222 41.568895 18.807222 L 40.615562 17.951667 Q 39.870007 19.173889 38.947229 19.772778 Q 38.024451 20.371667 36.973340 20.371667 Q 36.423340 20.371667 35.958896 20.231111 Q 35.494451 20.090556 35.164451 19.852222 Q 34.834451 19.613889 34.651118 19.296111 Q 34.467784 18.978333 34.467784 18.623889 Q 34.467784 18.037222 34.797784 17.597222 Q 35.127784 17.157222 35.665562 16.802778 Q 36.203340 16.448333 36.887784 16.148889 Q 37.572229 15.849444 38.293340 15.537778 Q 39.014451 15.226111 39.698895 14.871667 Q 40.383340 14.517222 40.921118 14.046667 Q 41.458895 13.576111 41.788895 12.958889 Q 42.118895 12.341667 42.118895 11.522778 Q 42.118895 10.691667 41.807229 9.964444 Q 41.495562 9.237222 40.872229 8.705556 Q 40.248895 8.173889 39.301673 7.868333 Q 38.354451 7.562778 37.095562 7.562778 Q 36.521118 7.562778 35.916118 7.654444 Q 35.311118 7.746111 34.693896 8.008889 Q 34.076673 8.271667 33.459451 8.748333 Q 32.842229 9.225000 32.255562 9.995000 L 33.318896 10.960556 Q 33.795562 10.288333 34.235562 9.817778 Q 34.675562 9.347222 35.121673 9.047778 Q 35.567784 8.748333 36.050562 8.607778 Q 36.533340 8.467222 37.095562 8.467222 Z M 51.138895 7.562778 Q 49.635562 7.562778 48.358340 8.088333 Q 47.081118 8.613889 46.158340 9.518333 Q 45.235562 10.422778 44.716118 11.638889 Q 44.196673 12.855000 44.196673 14.236111 Q 44.196673 15.690556 44.716118 16.967778 Q 45.235562 18.245000 46.158340 19.192222 Q 47.081118 20.139444 48.358340 20.689444 Q 49.635562 21.239444 51.138895 21.239444 Q 52.642229 21.239444 53.907229 20.738333 Q 55.172229 20.237222 56.101117 19.363333 Q 57.030006 18.489444 57.549451 17.310000 Q 58.068895 16.130556 58.068895 14.786111 Q 58.068895 13.295000 57.549451 11.981111 Q 57.030006 10.667222 56.101117 9.683333 Q 55.172229 8.699444 53.907229 8.131111 Q 52.642229 7.562778 51.138895 7.562778 Z M 51.627784 8.528333 Q 52.397784 8.528333 53.039451 8.925556 Q 53.681117 9.322778 54.151673 9.988889 Q 54.622229 10.655000 54.878895 11.547222 Q 55.135562 12.439444 55.135562 13.429444 Q 55.135562 14.859444 54.891117 16.100000 Q 54.646673 17.340556 54.096673 18.269444 Q 53.546673 19.198333 52.666673 19.730000 Q 51.786673 20.261667 50.503340 20.261667 Q 49.843340 20.261667 49.232229 19.882778 Q 48.621118 19.503889 48.150562 18.843889 Q 47.680006 18.183889 47.398895 17.303889 Q 47.117784 16.423889 47.117784 15.433889 Q 47.117784 14.003889 47.423340 12.745000 Q 47.728895 11.486111 48.303340 10.551111 Q 48.877784 9.616111 49.721118 9.072222 Q 50.564451 8.528333 51.627784 8.528333 Z M 63.300006 7.843889 L 60.696673 7.843889 L 60.696673 26.947222 L 62.554451 27.692778 L 63.300006 27.692778 Z M 69.081117 20.970556 L 69.081117 11.632778 Q 69.081117 11.143889 69.307228 10.710000 Q 69.533339 10.276111 69.924451 9.958333 Q 70.315562 9.640556 70.841117 9.451111 Q 71.366673 9.261667 71.965562 9.261667 Q 72.356673 9.261667 72.796673 9.426667 Q 73.236673 9.591667 73.658339 9.885000 Q 74.080006 10.178333 74.452784 10.563333 Q 74.825562 10.948333 75.070006 11.388333 L 75.070006 20.970556 L 77.673339 20.970556 L 77.673339 7.843889 L 75.070006 7.843889 L 75.070006 10.300556 Q 74.727784 9.738333 74.208339 9.237222 Q 73.688895 8.736111 73.083895 8.363333 Q 72.478895 7.990556 71.837228 7.776667 Q 71.195562 7.562778 70.621117 7.562778 Q 69.765562 7.562778 69.007784 7.886667 Q 68.250006 8.210556 67.687784 8.760556 Q 67.125562 9.310556 66.801673 10.050000 Q 66.477784 10.789444 66.477784 11.632778 L 66.477784 20.970556 Z M 87.720006 9.518333 Q 87.194450 8.613889 86.326672 8.088333 Q 85.458895 7.562778 84.187784 7.562778 Q 83.527784 7.562778 83.045006 7.782778 Q 82.562228 8.002778 82.244450 8.406111 Q 81.926673 8.809444 81.773895 9.371667 Q 81.621117 9.933889 81.621117 10.618333 L 81.621117 19.870556 L 79.347784 19.870556 L 79.347784 20.518333 Q 80.447784 20.518333 81.156673 20.915556 Q 81.865561 21.312778 82.317784 21.991111 Q 82.770006 22.669444 83.026673 23.561667 Q 83.283339 24.453889 83.478895 25.456111 L 84.224450 25.456111 L 84.224450 20.970556 L 87.170006 20.970556 L 87.170006 19.870556 L 84.224450 19.870556 L 84.224450 10.618333 Q 84.224450 10.325000 84.334450 10.068333 Q 84.444450 9.811667 84.633895 9.622222 Q 84.823339 9.432778 85.086117 9.322778 Q 85.348895 9.212778 85.642228 9.212778 Q 86.082228 9.212778 86.442784 9.426667 Q 86.803339 9.640556 87.072228 9.958333 Z M 90.690006 27.692778 Q 90.995561 27.692778 91.270561 27.588889 Q 91.545561 27.485000 91.747228 27.307778 Q 91.948895 27.130556 92.071117 26.892222 Q 92.193339 26.653889 92.193339 26.385000 Q 92.193339 26.116111 92.071117 25.877778 Q 91.948895 25.639444 91.747228 25.462222 Q 91.545561 25.285000 91.270561 25.181111 Q 90.995561 25.077222 90.690006 25.077222 Q 90.384450 25.077222 90.115561 25.181111 Q 89.846672 25.285000 89.645006 25.462222 Q 89.443339 25.639444 89.321117 25.877778 Q 89.198895 26.116111 89.198895 26.385000 Q 89.198895 26.653889 89.321117 26.892222 Q 89.443339 27.130556 89.645006 27.307778 Q 89.846672 27.485000 90.115561 27.588889 Q 90.384450 27.692778 90.690006 27.692778 Z M 89.418895 20.493889 L 91.252228 21.239444 L 92.010006 21.239444 L 92.010006 7.843889 L 89.418895 7.843889 Z M 101.580006 7.562778 Q 100.076672 7.562778 98.799450 8.088333 Q 97.522228 8.613889 96.599450 9.518333 Q 95.676672 10.422778 95.157228 11.638889 Q 94.637783 12.855000 94.637783 14.236111 Q 94.637783 15.690556 95.157228 16.967778 Q 95.676672 18.245000 96.599450 19.192222 Q 97.522228 20.139444 98.799450 20.689444 Q 100.076672 21.239444 101.580006 21.239444 Q 103.083339 21.239444 104.348339 20.738333 Q 105.613339 20.237222 106.542228 19.363333 Q 107.471117 18.489444 107.990561 17.310000 Q 108.510005 16.130556 108.510005 14.786111 Q 108.510005 13.295000 107.990561 11.981111 Q 107.471117 10.667222 106.542228 9.683333 Q 105.613339 8.699444 104.348339 8.131111 Q 103.083339 7.562778 101.580006 7.562778 Z M 102.068894 8.528333 Q 102.838894 8.528333 103.480561 8.925556 Q 104.122228 9.322778 104.592783 9.988889 Q 105.063339 10.655000 105.320005 11.547222 Q 105.576672 12.439444 105.576672 13.429444 Q 105.576672 14.859444 105.332228 16.100000 Q 105.087783 17.340556 104.537783 18.269444 Q 103.987783 19.198333 103.107783 19.730000 Q 102.227783 20.261667 100.944450 20.261667 Q 100.284450 20.261667 99.673339 19.882778 Q 99.062228 19.503889 98.591672 18.843889 Q 98.121117 18.183889 97.840006 17.303889 Q 97.558895 16.423889 97.558895 15.433889 Q 97.558895 14.003889 97.864450 12.745000 Q 98.170006 11.486111 98.744450 10.551111 Q 99.318894 9.616111 100.162228 9.072222 Q 101.005561 8.528333 102.068894 8.528333 Z M 111.015561 20.970556 L 113.618894 20.970556 L 113.618894 18.575000 Q 114.804450 19.907222 116.087783 20.573333 Q 117.371116 21.239444 118.703339 21.239444 Q 119.387783 21.239444 119.992783 20.927778 Q 120.597783 20.616111 121.043894 20.078333 Q 121.490005 19.540556 121.752783 18.813333 Q 122.015561 18.086111 122.015561 17.267222 L 122.015561 7.843889 L 119.400005 7.843889 L 119.400005 16.827222 Q 119.400005 18.122778 118.813339 18.795000 Q 118.226672 19.467222 117.310005 19.467222 Q 116.894450 19.467222 116.430005 19.332778 Q 115.965561 19.198333 115.488894 18.947778 Q 115.012228 18.697222 114.535561 18.348889 Q 114.058894 18.000556 113.618894 17.572778 L 113.618894 7.843889 L 111.015561 7.843889 Z M 128.236672 16.301667 Q 128.236672 14.505000 128.774450 13.087222 Q 129.312227 11.669444 130.253338 10.685556 Q 131.194449 9.701667 132.483894 9.182222 Q 133.773338 8.662778 135.276672 8.662778 Q 136.168894 8.662778 137.000005 9.011111 Q 137.831116 9.359444 138.546116 9.915556 Q 139.261116 10.471667 139.823338 11.174444 Q 140.385560 11.877222 140.752227 12.598333 L 141.950005 11.828333 Q 141.424449 10.972778 140.709449 10.178333 Q 139.994449 9.383889 139.053338 8.778889 Q 138.112227 8.173889 136.926672 7.807222 Q 135.741116 7.440556 134.274449 7.440556 Q 132.868894 7.440556 131.622227 7.764444 Q 130.375561 8.088333 129.330561 8.668889 Q 128.285561 9.249444 127.460561 10.068333 Q 126.635561 10.887222 126.067227 11.871111 Q 125.498894 12.855000 125.193338 13.979444 Q 124.887783 15.103889 124.887783 16.301667 Q 124.887783 17.499444 125.199450 18.630000 Q 125.511116 19.760556 126.091672 20.756667 Q 126.672227 21.752778 127.515561 22.583889 Q 128.358894 23.415000 129.416116 24.007778 Q 130.473338 24.600556 131.732227 24.930556 Q 132.991116 25.260556 134.421116 25.260556 Q 135.777783 25.260556 136.920560 24.893889 Q 138.063338 24.527222 139.010560 23.922222 Q 139.957783 23.317222 140.691116 22.522778 Q 141.424449 21.728333 141.950005 20.872778 L 140.715560 20.041667 Q 139.640005 22.107222 138.320005 23.072778 Q 137.000005 24.038333 135.288894 24.038333 Q 133.810005 24.038333 132.526672 23.500556 Q 131.243338 22.962778 130.290005 21.960556 Q 129.336672 20.958333 128.786672 19.528333 Q 128.236672 18.098333 128.236672 16.301667 Z M 151.275560 7.562778 Q 149.772227 7.562778 148.495005 8.088333 Q 147.217783 8.613889 146.295005 9.518333 Q 145.372227 10.422778 144.852783 11.638889 Q 144.333338 12.855000 144.333338 14.236111 Q 144.333338 15.690556 144.852783 16.967778 Q 145.372227 18.245000 146.295005 19.192222 Q 147.217783 20.139444 148.495005 20.689444 Q 149.772227 21.239444 151.275560 21.239444 Q 152.778894 21.239444 154.043894 20.738333 Q 155.308894 20.237222 156.237782 19.363333 Q 157.166671 18.489444 157.686116 17.310000 Q 158.205560 16.130556 158.205560 14.786111 Q 158.205560 13.295000 157.686116 11.981111 Q 157.166671 10.667222 156.237782 9.683333 Q 155.308894 8.699444 154.043894 8.131111 Q 152.778894 7.562778 151.275560 7.562778 Z M 151.764449 8.528333 Q 152.534449 8.528333 153.176116 8.925556 Q 153.817782 9.322778 154.288338 9.988889 Q 154.758894 10.655000 155.015560 11.547222 Q 155.272227 12.439444 155.272227 13.429444 Q 155.272227 14.859444 155.027782 16.100000 Q 154.783338 17.340556 154.233338 18.269444 Q 153.683338 19.198333 152.803338 19.730000 Q 151.923338 20.261667 150.640005 20.261667 Q 149.980005 20.261667 149.368894 19.882778 Q 148.757783 19.503889 148.287227 18.843889 Q 147.816671 18.183889 147.535560 17.303889 Q 147.254449 16.423889 147.254449 15.433889 Q 147.254449 14.003889 147.560005 12.745000 Q 147.865560 11.486111 148.440005 10.551111 Q 149.014449 9.616111 149.857782 9.072222 Q 150.701116 8.528333 151.764449 8.528333 Z M 160.711116 20.970556 L 163.314449 20.970556 L 163.314449 18.513889 Q 163.815560 19.063889 164.445004 19.552778 Q 165.074449 20.041667 165.740560 20.420556 Q 166.406671 20.799444 167.078893 21.019444 Q 167.751116 21.239444 168.350004 21.239444 Q 168.936671 21.239444 169.529449 21.031667 Q 170.122227 20.823889 170.629449 20.451111 Q 171.136671 20.078333 171.503338 19.571111 Q 171.870004 19.063889 171.980004 18.465000 Q 172.310004 19.039444 172.878338 19.546667 Q 173.446671 20.053889 174.143338 20.426667 Q 174.840004 20.799444 175.610004 21.019444 Q 176.380004 21.239444 177.125560 21.239444 Q 177.871115 21.239444 178.525004 20.909444 Q 179.178893 20.579444 179.667782 20.023333 Q 180.156671 19.467222 180.437782 18.715556 Q 180.718893 17.963889 180.718893 17.120556 L 180.718893 7.843889 L 178.103338 7.843889 L 178.103338 16.741667 Q 178.103338 17.291667 177.913893 17.786667 Q 177.724449 18.281667 177.406671 18.654444 Q 177.088893 19.027222 176.661115 19.247222 Q 176.233338 19.467222 175.756671 19.467222 Q 175.218893 19.467222 174.662782 19.320556 Q 174.106671 19.173889 173.605560 18.917222 Q 173.104449 18.660556 172.688893 18.318333 Q 172.273338 17.976111 172.028893 17.597222 L 172.028893 7.843889 L 169.425560 7.843889 L 169.425560 16.741667 Q 169.425560 17.291667 169.236115 17.786667 Q 169.046671 18.281667 168.716671 18.654444 Q 168.386671 19.027222 167.958893 19.247222 Q 167.531116 19.467222 167.054449 19.467222 Q 166.553338 19.467222 166.021671 19.314444 Q 165.490004 19.161667 164.982782 18.905000 Q 164.475560 18.648333 164.041671 18.312222 Q 163.607782 17.976111 163.314449 17.597222 L 163.314449 7.843889 L 160.711116 7.843889 Z M 183.713337 20.970556 L 186.316671 20.970556 L 186.316671 18.293889 Q 186.707782 18.795000 187.190560 19.314444 Q 187.673337 19.833889 188.260004 20.261667 Q 188.846671 20.689444 189.549448 20.964444 Q 190.252226 21.239444 191.095560 21.239444 Q 192.256671 21.239444 193.210004 20.750556 Q 194.163337 20.261667 194.835560 19.424444 Q 195.507782 18.587222 195.874448 17.462778 Q 196.241115 16.338333 196.241115 15.067222 Q 196.241115 13.441667 195.788893 12.066667 Q 195.336671 10.691667 194.505560 9.689444 Q 193.674448 8.687222 192.488893 8.125000 Q 191.303337 7.562778 189.824448 7.562778 Q 189.274448 7.562778 188.810004 7.617778 Q 188.345560 7.672778 187.923893 7.788889 Q 187.502226 7.905000 187.111115 8.088333 Q 186.720004 8.271667 186.316671 8.528333 L 186.316671 2.307222 L 183.713337 2.307222 Z M 186.316671 11.388333 Q 186.316671 10.801667 186.573337 10.276111 Q 186.830004 9.750556 187.294449 9.365556 Q 187.758893 8.980556 188.406671 8.754444 Q 189.054448 8.528333 189.824448 8.528333 Q 190.557782 8.528333 191.199448 8.901111 Q 191.841115 9.273889 192.323893 9.958333 Q 192.806671 10.642778 193.081671 11.590000 Q 193.356671 12.537222 193.356671 13.698333 Q 193.356671 15.152778 193.100004 16.234444 Q 192.843337 17.316111 192.385004 18.037222 Q 191.926671 18.758333 191.303337 19.112778 Q 190.680004 19.467222 189.934448 19.467222 Q 189.360004 19.467222 188.840560 19.290000 Q 188.321115 19.112778 187.862782 18.819444 Q 187.404449 18.526111 187.013337 18.141111 Q 186.622226 17.756111 186.316671 17.340556 Z M 201.411115 7.843889 L 198.807782 7.843889 L 198.807782 26.947222 L 200.665559 27.692778 L 201.411115 27.692778 Z M 205.982226 27.692778 Q 206.287782 27.692778 206.562782 27.588889 Q 206.837782 27.485000 207.039448 27.307778 Q 207.241115 27.130556 207.363337 26.892222 Q 207.485559 26.653889 207.485559 26.385000 Q 207.485559 26.116111 207.363337 25.877778 Q 207.241115 25.639444 207.039448 25.462222 Q 206.837782 25.285000 206.562782 25.181111 Q 206.287782 25.077222 205.982226 25.077222 Q 205.676670 25.077222 205.407782 25.181111 Q 205.138893 25.285000 204.937226 25.462222 Q 204.735559 25.639444 204.613337 25.877778 Q 204.491115 26.116111 204.491115 26.385000 Q 204.491115 26.653889 204.613337 26.892222 Q 204.735559 27.130556 204.937226 27.307778 Q 205.138893 27.485000 205.407782 27.588889 Q 205.676670 27.692778 205.982226 27.692778 Z M 204.711115 20.493889 L 206.544448 21.239444 L 207.302226 21.239444 L 207.302226 7.843889 L 204.711115 7.843889 Z M 220.147781 7.843889 L 217.532226 7.843889 L 217.532226 9.640556 Q 217.067781 9.286111 216.621670 8.919444 Q 216.175559 8.552778 215.656115 8.247222 Q 215.136670 7.941667 214.507226 7.752222 Q 213.877781 7.562778 213.046670 7.562778 Q 212.276670 7.562778 211.653337 7.813333 Q 211.030004 8.063889 210.590004 8.503889 Q 210.150004 8.943889 209.917781 9.542778 Q 209.685559 10.141667 209.685559 10.838333 Q 209.685559 11.681667 210.021670 12.360000 Q 210.357781 13.038333 210.938337 13.576111 Q 211.518893 14.113889 212.295004 14.529444 Q 213.071115 14.945000 213.938893 15.275000 Q 214.806670 15.605000 215.729448 15.861667 Q 216.652226 16.118333 217.532226 16.338333 L 217.532226 17.157222 Q 217.532226 18.049444 217.355004 18.666667 Q 217.177781 19.283889 216.847781 19.662778 Q 216.517781 20.041667 216.047226 20.206667 Q 215.576670 20.371667 214.990004 20.371667 Q 214.330004 20.371667 213.914448 20.200556 Q 213.498893 20.029444 213.260559 19.748333 Q 213.022226 19.467222 212.936670 19.106667 Q 212.851115 18.746111 212.851115 18.379444 Q 212.851115 18.037222 212.796115 17.719444 Q 212.741115 17.401667 212.594448 17.163333 Q 212.447781 16.925000 212.197226 16.778333 Q 211.946670 16.631667 211.555559 16.631667 Q 211.250004 16.631667 210.999448 16.747778 Q 210.748893 16.863889 210.565559 17.071667 Q 210.382226 17.279444 210.284448 17.560556 Q 210.186670 17.841667 210.186670 18.171667 Q 210.186670 18.819444 210.614448 19.381667 Q 211.042226 19.943889 211.763337 20.353333 Q 212.484448 20.762778 213.450004 21.001111 Q 214.415559 21.239444 215.478892 21.239444 Q 216.774448 21.239444 217.666670 20.988889 Q 218.558892 20.738333 219.108892 20.286111 Q 219.658892 19.833889 219.903337 19.186111 Q 220.147781 18.538333 220.147781 17.756111 Z M 217.532226 15.495000 Q 216.970004 15.311667 216.365004 15.079444 Q 215.760004 14.847222 215.179448 14.560000 Q 214.598892 14.272778 214.073337 13.936667 Q 213.547781 13.600556 213.150559 13.221667 Q 212.753337 12.842778 212.521115 12.415000 Q 212.288893 11.987222 212.288893 11.522778 Q 212.288893 11.046111 212.466115 10.612222 Q 212.643337 10.178333 212.936670 9.854444 Q 213.230004 9.530556 213.615004 9.341111 Q 214.000004 9.151667 214.415559 9.151667 Q 214.855559 9.151667 215.252781 9.267778 Q 215.650004 9.383889 216.022781 9.579444 Q 216.395559 9.775000 216.768337 10.037778 Q 217.141115 10.300556 217.532226 10.593889 Z M 223.631115 20.970556 L 226.234448 20.970556 L 226.234448 18.575000 Q 227.420003 19.907222 228.703337 20.573333 Q 229.986670 21.239444 231.318892 21.239444 Q 232.003337 21.239444 232.608337 20.927778 Q 233.213337 20.616111 233.659448 20.078333 Q 234.105559 19.540556 234.368337 18.813333 Q 234.631114 18.086111 234.631114 17.267222 L 234.631114 7.843889 L 232.015559 7.843889 L 232.015559 16.827222 Q 232.015559 18.122778 231.428892 18.795000 Q 230.842226 19.467222 229.925559 19.467222 Q 229.510003 19.467222 229.045559 19.332778 Q 228.581114 19.198333 228.104448 18.947778 Q 227.627781 18.697222 227.151115 18.348889 Q 226.674448 18.000556 226.234448 17.572778 L 226.234448 7.843889 L 223.631115 7.843889 Z M 243.198892 7.562778 Q 241.915559 7.562778 240.785003 8.070000 Q 239.654448 8.577222 238.817225 9.457222 Q 237.980003 10.337222 237.497225 11.522778 Q 237.014448 12.708333 237.014448 14.052778 Q 237.014448 15.543889 237.546114 16.851667 Q 238.077781 18.159444 239.006670 19.137222 Q 239.935559 20.115000 241.170003 20.677222 Q 242.404448 21.239444 243.822225 21.239444 Q 244.922225 21.239444 245.851114 21.001111 Q 246.780003 20.762778 247.452225 20.341111 Q 248.124447 19.919444 248.503336 19.345000 Q 248.882225 18.770556 248.882225 18.110556 Q 248.882225 17.817222 248.729447 17.554444 Q 248.576670 17.291667 248.332225 17.096111 Q 248.087781 16.900556 247.776114 16.784444 Q 247.464447 16.668333 247.146670 16.668333 Q 246.792225 16.668333 246.511114 16.796667 Q 246.230003 16.925000 246.028336 17.126667 Q 245.826670 17.328333 245.722781 17.585000 Q 245.618892 17.841667 245.618892 18.110556 Q 245.618892 18.562778 245.521114 18.960000 Q 245.423336 19.357222 245.178892 19.644444 Q 244.934448 19.931667 244.506670 20.096667 Q 244.078892 20.261667 243.418892 20.261667 Q 242.526670 20.261667 241.817781 19.901111 Q 241.108892 19.540556 240.620003 18.929444 Q 240.131114 18.318333 239.874448 17.493333 Q 239.617781 16.668333 239.617781 15.739444 Q 239.617781 14.480556 239.947781 13.356111 Q 240.277781 12.231667 240.876670 11.388333 Q 241.475559 10.545000 242.318892 10.050000 Q 243.162225 9.555000 244.201114 9.555000 Q 245.117781 9.555000 245.790003 9.842222 Q 246.462225 10.129444 246.957225 10.618333 Q 247.452225 11.107222 247.806670 11.755000 Q 248.161114 12.402778 248.442225 13.123889 L 249.224447 12.806111 Q 248.894447 11.571667 248.332225 10.593889 Q 247.770003 9.616111 247.006114 8.943889 Q 246.242225 8.271667 245.282781 7.917222 Q 244.323336 7.562778 243.198892 7.562778 Z M 257.486670 7.562778 Q 256.154447 7.562778 254.987225 8.063889 Q 253.820003 8.565000 252.946114 9.426667 Q 252.072225 10.288333 251.565003 11.443333 Q 251.057781 12.598333 251.057781 13.918333 Q 251.057781 15.495000 251.522225 16.839444 Q 251.986670 18.183889 252.830003 19.161667 Q 253.673336 20.139444 254.865003 20.689444 Q 256.056670 21.239444 257.511114 21.239444 Q 258.806670 21.239444 259.882225 20.787222 Q 260.957781 20.335000 261.727781 19.571111 Q 262.497781 18.807222 262.925558 17.805000 Q 263.353336 16.802778 263.353336 15.702778 L 253.563336 15.702778 Q 253.563336 14.382778 253.905558 13.252222 Q 254.247781 12.121667 254.858892 11.302778 Q 255.470003 10.483889 256.325558 10.019444 Q 257.181114 9.555000 258.195558 9.555000 Q 259.051114 9.555000 259.833336 9.830000 Q 260.615558 10.105000 261.251114 10.551111 Q 261.886669 10.997222 262.332781 11.577778 Q 262.778892 12.158333 262.962225 12.769444 L 263.707781 12.439444 Q 263.426669 11.425000 262.797225 10.538889 Q 262.167781 9.652778 261.330558 8.992778 Q 260.493336 8.332778 259.497225 7.947778 Q 258.501114 7.562778 257.486670 7.562778 Z M 260.090003 16.753889 Q 260.090003 17.499444 259.827225 18.141111 Q 259.564447 18.782778 259.106114 19.253333 Q 258.647781 19.723889 258.030558 19.992778 Q 257.413336 20.261667 256.704447 20.261667 Q 256.117781 20.261667 255.573892 19.992778 Q 255.030003 19.723889 254.608336 19.259444 Q 254.186670 18.795000 253.911670 18.153333 Q 253.636670 17.511667 253.575558 16.766111 Z" transform="scale(1.000000,1.000000) translate(6.000000,25.000000)" fill="#414141" opacity="1.000000"></path>
        <path d="M 2.066672 4.299988 L 229.933328 4.299988 L 229.933328 2.299988 L 2.066672 2.299988 L 2.066672 4.299988 Z" transform="scale(1.000000,1.000000) translate(42.000000,18.000000)" fill="url(#-1026836880)" opacity="1.000000"></path>
    </g>
</svg>