<?xml version="1.0" encoding="UTF-8" standalone="no"?>
<!-- Created with Inkscape (http://www.inkscape.org/) -->

<svg
   xmlns:dc="http://purl.org/dc/elements/1.1/"
   xmlns:cc="http://creativecommons.org/ns#"
   xmlns:rdf="http://www.w3.org/1999/02/22-rdf-syntax-ns#"
   xmlns:svg="http://www.w3.org/2000/svg"
   xmlns="http://www.w3.org/2000/svg"
   xmlns:sodipodi="http://sodipodi.sourceforge.net/DTD/sodipodi-0.dtd"
   xmlns:inkscape="http://www.inkscape.org/namespaces/inkscape"
   width="29.944525mm"
   height="23.195339mm"
   viewBox="0 0 106.10265 82.188209"
   id="svg2"
   version="1.1"
   inkscape:version="0.91 r13725"
   sodipodi:docname="upload.svg">
  <defs
     id="defs4" />
  <sodipodi:namedview
     id="base"
     pagecolor="#ffffff"
     bordercolor="#666666"
     borderopacity="1.0"
     inkscape:pageopacity="0.0"
     inkscape:pageshadow="2"
     inkscape:zoom="2.8"
     inkscape:cx="-105.16634"
     inkscape:cy="18.346684"
     inkscape:document-units="px"
     inkscape:current-layer="layer1"
     showgrid="false"
     inkscape:window-width="1920"
     inkscape:window-height="1017"
     inkscape:window-x="-8"
     inkscape:window-y="-8"
     inkscape:window-maximized="1"
     showguides="true"
     inkscape:guide-bbox="true"
     fit-margin-top="1"
     fit-margin-left="1"
     fit-margin-right="1"
     fit-margin-bottom="1">
    <sodipodi:guide
       position="-45.480889,4.1259119"
       orientation="0,1"
       id="guide4149" />
    <sodipodi:guide
       position="-45.882669,-14.177668"
       orientation="0,1"
       id="guide4151" />
  </sodipodi:namedview>
  <metadata
     id="metadata7">
    <rdf:RDF>
      <cc:Work
         rdf:about="">
        <dc:format>image/svg+xml</dc:format>
        <dc:type
           rdf:resource="http://purl.org/dc/dcmitype/StillImage" />
        <dc:title></dc:title>
      </cc:Work>
    </rdf:RDF>
  </metadata>
  <g
     inkscape:label="Layer 1"
     inkscape:groupmode="layer"
     id="layer1"
     transform="translate(-410.16838,-466.88919)">
    <path
       style="fill:#adadad"
       d="m 426.28176,542.53721 c -5.57478,-3.93564 -10.83806,-9.71174 -12.27709,-16.38232 -1.04634,-4.85025 0.86945,-10.16394 3.22201,-14.5326 1.20008,-2.22853 3.3439,-3.82784 5.28476,-5.45253 2.02306,-1.69349 4.43836,-3.16197 6.56409,-4.42252 0.51219,-1.93065 0.60611,-3.21988 1.2659,-4.70335 2.05095,-4.61132 4.21825,-9.64104 8.22206,-12.71354 3.53772,-2.71482 8.285,-3.76261 12.73071,-4.11098 1.45193,-0.11377 2.58187,0.41766 4.31614,0.6786 1.53265,-1.46886 3.08694,-3.08703 4.8143,-4.41129 1.83279,-1.40508 3.72244,-2.81074 5.84635,-3.71758 3.00291,-1.28213 6.24824,-2.29364 9.51314,-2.33492 3.30035,-0.0417 6.69633,0.69045 9.67301,2.11642 3.76878,1.80542 7.22906,4.54154 9.76327,7.86434 2.35149,3.08321 3.7572,6.89127 4.64138,10.6667 0.56388,2.40775 0.0668,5.45023 0.36838,7.40953 2.07512,1.98499 4.30972,3.0124 5.90717,5.05241 2.81643,3.59669 5.17418,7.78425 6.15062,12.24687 0.75347,3.4436 0.478,7.1463 -0.36589,10.56887 -0.78525,3.18476 -2.4353,6.14673 -4.27034,8.86554 -1.55101,2.29799 -3.28788,4.61927 -5.59924,6.15027 -2.2459,1.48764 -4.97787,2.17858 -7.62501,2.67836 -10.52283,1.98673 -16.16162,1.12367 -32.10606,1.13744 -16.74551,0.0145 -19.56075,1.03386 -29.15791,-0.51157 -2.37193,-0.38194 -4.91908,-0.75656 -6.88175,-2.14215 z m 70.49974,-4.7762 c 2.88235,-1.39518 5.06069,-4.13854 6.68786,-6.89658 1.70906,-2.89684 3.14377,-6.29401 2.94321,-9.65144 -0.36105,-6.04396 -3.70561,-11.76914 -7.32903,-16.61997 -1.01815,-1.36304 -2.47411,-2.69739 -3.89384,-3.29979 0.38354,-1.44084 -0.009,-3.92773 -0.36828,-5.84731 -0.72033,-3.84546 -1.09352,-8.14323 -3.55196,-11.18666 -3.22042,-3.98671 -8.26214,-6.99743 -13.34786,-7.63014 -4.43401,-0.55164 -9.0502,1.35168 -12.91263,3.59809 -2.59344,1.50836 -4.93773,3.99932 -6.38711,6.34149 -0.88936,0.003 -4.25799,-0.80655 -6.37461,-0.54567 -4.00094,0.49313 -8.43327,1.23956 -11.43852,3.92641 -3.28233,2.93457 -4.66382,7.64704 -5.65498,11.93691 -0.3662,1.58496 -0.0571,4.87981 -0.0571,4.87981 0,0 -2.82504,0.90773 -4.12804,1.60079 -2.63298,1.40046 -5.25348,2.72685 -7.34479,5.10873 -3.0534,3.47763 -3.83324,6.47474 -3.80239,10.05924 0.0333,3.86381 2.04121,7.625 4.28473,10.77091 1.38403,1.94073 3.2273,3.73135 5.42115,4.66354 3.06737,1.30335 6.52105,0.88265 9.95501,0.93023 7.066,0.0979 14.49781,-0.35127 21.56564,-0.55142 6.66565,-0.18877 15.8985,-0.13007 23.38296,-0.33752 5.92966,-0.16435 8.62608,0.55316 12.35059,-1.24965 z m -39.05804,-4.90631 c -0.0449,-18.26035 -0.0449,0.0432 -0.19012,-18.22721 -10.47977,-0.0331 -1.75224,-0.0331 -11.38616,-0.096 17.73674,-17.52645 0.0582,0.0628 17.73674,-17.52645 l 17.11026,17.45044 -10.71669,0.21651 c -0.14355,18.22589 0,0 -0.23399,18.26949 l -12.32004,-0.0868 z"
       id="path4147"
       inkscape:connector-curvature="0"
       sodipodi:nodetypes="aaaacaaacaaaaaacaaaaaasaacaaacaaaacaaacasaaasssacccccccccc" />
  </g>
</svg>
